<?xml version="1.0" standalone="no"?>
<!DOCTYPE svg PUBLIC "-//W3C//DTD SVG 20010904//EN"
 "http://www.w3.org/TR/2001/REC-SVG-20010904/DTD/svg10.dtd">
<svg version="1.0" xmlns="http://www.w3.org/2000/svg"
 width="1280.000000pt" height="312.000000pt" viewBox="0 0 1280.000000 312.000000"
 preserveAspectRatio="xMidYMid meet">

<g transform="translate(0.000000,312.000000) scale(0.100000,-0.100000)"
fill="#000000" stroke="none">
<path d="M1460 2430 c-240 -28 -417 -138 -551 -343 -102 -155 -135 -283 -126 -487 3 -69 13 -152 22 -185 38 -137 111 -258 219 -365 l66 -64 32 30 c18 17 123 111 233 210 465 416 592 521 609 504 7 -7 11 -51 10 -113 -1 -85 -5 -113 -27 -170 -60 -154 -149 -232 -358 -315 -24 -9 -28 -20 -54 -152 -31 -159 -31 -161 39 -153 285 34 517 200 636 455 92 196 104 424 35 629 -48 139 -138 268 -258 367 -137 113 -344 173 -527 152z m237 -353 c63 -32 125 -85 121 -103 -3 -11 -257 -257 -551 -534 l-90 -84 -23 29 c-64 80 -91 244 -60 365 22 85 73 174 133 231 61 58 92 77 173 106 92 33 221 29 297 -10z"/>
<path d="M4418 2135 c-263 -66 -457 -323 -475 -627 -10 -172 28 -291 126 -389 69 -69 141 -99 256 -106 89 -6 210 18 292 58 119 58 223 163 289 293 97 189 104 445 17 593 -37 63 -124 138 -191 164 -73 28 -229 35 -314 14z m188 -224 c72 -33 104 -100 104 -220 -1 -194 -92 -372 -220 -430 -90 -41 -201 -17 -248 52 -87 130 -2 467 143 566 77 52 153 63 221 32z"/>
<path d="M2865 2118 c-3 -7 -36 -168 -75 -358 -39 -190 -88 -428 -109 -530 -22 -102 -37 -188 -35 -192 9 -14 220 -9 231 5 9 10 36 143 99 482 22 121 24 129 33 119 5 -5 27 -94 51 -199 23 -104 46 -207 51 -228 l10 -38 92 3 92 3 127 230 c120 216 156 270 144 213 -7 -28 -76 -561 -76 -583 0 -13 18 -15 114 -15 63 0 117 4 120 8 15 25 138 1074 127 1085 -4 4 -66 6 -136 5 l-129 -3 -83 -155 c-46 -85 -118 -224 -161 -307 -42 -84 -79 -153 -82 -153 -3 0 -32 132 -64 293 -33 160 -63 300 -68 310 -8 15 -25 17 -139 17 -95 0 -131 -3 -134 -12z"/>
<path d="M5245 2120 c-7 -12 -215 -1046 -215 -1072 0 -17 8 -18 117 -16 l118 3 58 305 c32 167 60 307 63 309 9 9 15 -12 59 -215 25 -115 50 -219 55 -232 9 -22 14 -23 102 -20 l92 3 34 60 c19 33 77 137 129 230 105 189 118 208 109 155 -12 -71 -76 -559 -76 -579 0 -21 3 -22 118 -19 l117 3 12 85 c7 47 35 262 63 478 28 217 55 416 60 444 18 95 28 88 -123 88 -115 0 -136 -2 -149 -17 -21 -23 -199 -345 -273 -492 -31 -63 -60 -110 -64 -105 -4 5 -13 41 -20 79 -26 153 -104 511 -113 523 -13 15 -264 17 -273 2z"/>
<path d="M6526 2113 c-11 -41 -206 -1051 -206 -1072 0 -8 92 -11 325 -11 l325 0 10 23 c8 18 40 180 40 200 0 4 -91 7 -201 7 l-202 0 7 53 c4 28 12 73 17 100 l11 47 174 0 c172 0 174 0 179 23 16 69 35 171 35 188 0 18 -9 19 -165 19 -124 0 -167 3 -170 13 -2 6 4 50 13 97 l17 85 192 3 192 2 11 58 c6 31 15 76 20 99 21 91 52 83 -304 83 -291 0 -315 -1 -320 -17z"/>
<path d="M7370 2108 c-5 -13 -34 -151 -64 -308 -31 -157 -76 -391 -101 -520 -25 -130 -45 -239 -45 -243 0 -4 54 -7 120 -7 88 0 122 3 125 13 3 6 27 138 55 292 59 328 59 329 67 322 3 -4 56 -127 118 -276 62 -148 121 -286 131 -307 l19 -39 108 -3 c81 -2 108 1 111 10 9 29 196 1047 196 1067 0 20 -4 21 -124 21 -142 0 -129 10 -146 -110 -6 -41 -24 -160 -40 -265 -16 -104 -31 -201 -32 -215 -5 -40 -19 -26 -50 52 -78 195 -222 524 -232 530 -6 4 -55 8 -109 8 -92 0 -98 -1 -107 -22z"/>
<path d="M8373 2118 c-11 -14 -43 -169 -43 -205 0 -23 2 -23 125 -23 115 0 125 -1 125 -18 0 -11 -31 -183 -69 -383 -38 -200 -72 -385 -76 -411 l-7 -48 121 0 c116 0 122 1 131 23 5 12 30 137 55 277 48 266 91 499 100 538 5 21 9 22 138 22 l134 0 20 113 c11 61 19 115 16 120 -2 4 -174 7 -382 7 -291 0 -381 -3 -388 -12z"/>
<path d="M9285 2119 c-16 -24 -135 -716 -135 -780 0 -182 107 -291 316 -322 132 -20 312 34 407 122 45 42 95 124 123 203 18 52 145 768 138 780 -9 14 -230 10 -241 -4 -5 -7 -27 -107 -47 -223 -21 -115 -49 -271 -62 -345 -30 -166 -38 -193 -77 -236 -44 -51 -76 -64 -156 -64 -64 0 -74 3 -103 29 -58 52 -54 101 57 671 18 91 30 168 28 173 -7 11 -241 9 -248 -4z"/>
<path d="M10346 2121 c-7 -10 -216 -1057 -216 -1078 0 -15 225 -19 234 -4 6 9 99 481 111 564 4 26 11 50 16 53 5 3 9 2 9 -3 0 -24 101 -458 108 -465 5 -5 49 -8 98 -6 l88 3 93 160 c51 88 112 196 135 240 26 50 44 73 46 63 3 -15 -40 -348 -68 -524 -17 -102 -26 -94 110 -94 116 0 120 1 125 23 7 29 46 308 90 645 20 150 40 296 45 324 6 28 10 64 10 79 l0 29 -133 0 c-92 0 -138 -4 -149 -12 -8 -7 -89 -148 -179 -312 -89 -165 -164 -295 -166 -290 -1 5 -27 131 -58 279 -30 149 -59 284 -63 300 l-8 30 -136 3 c-78 1 -139 -1 -142 -7z"/>
</g>
</svg>
