<?xml version="1.0" encoding="UTF-8"?>
<svg version="1.1" xmlns="http://www.w3.org/2000/svg" width="166" height="176">
<path d="M0 0 C5.18744461 4.10789533 9.77590064 8.44287348 13.765625 13.7265625 C13.765625 14.3865625 13.765625 15.0465625 13.765625 15.7265625 C14.425625 15.7265625 15.085625 15.7265625 15.765625 15.7265625 C28.2882072 36.57077517 33.49953503 58.69886954 28.51171875 82.984375 C22.08298664 106.61248987 8.86582204 122.78225731 -11.75390625 135.25 C-22.39779826 141.07501553 -34.16843148 143.53545257 -46.234375 142.7265625 C-47.76291143 138.78352266 -46.64614203 135.97142549 -45.421875 132.0390625 C-44.16556122 127.9044134 -42.99083035 123.84459842 -42.171875 119.6015625 C-41.26663032 115.85988447 -40.78993701 114.44323603 -38.234375 111.7265625 C-35.59765625 110.41796875 -35.59765625 110.41796875 -32.546875 109.2890625 C-19.28171402 104.05660455 -10.1076398 96.6727345 -4.3359375 83.4296875 C-0.2710565 73.45487312 0.38643023 65.10148567 -2.234375 54.7265625 C-6.30059945 56.41668024 -9.38683047 59.24826668 -12.671875 62.1015625 C-23.85386029 71.7265625 -23.85386029 71.7265625 -26.234375 71.7265625 C-26.729375 73.2115625 -26.729375 73.2115625 -27.234375 74.7265625 C-28.74341377 76.08030214 -30.31850198 77.36099651 -31.921875 78.6015625 C-36.5583582 82.29391099 -40.92624852 86.15748053 -45.234375 90.2265625 C-50.2997956 95.00074741 -55.46991573 99.50120797 -60.9296875 103.82421875 C-63.28980985 105.70119835 -63.28980985 105.70119835 -65.4140625 107.97265625 C-67.234375 109.7265625 -67.234375 109.7265625 -69.234375 109.7265625 C-69.234375 110.3865625 -69.234375 111.0465625 -69.234375 111.7265625 C-70.6328125 113.171875 -70.6328125 113.171875 -72.609375 114.8515625 C-73.32867187 115.46386719 -74.04796875 116.07617188 -74.7890625 116.70703125 C-78.89623112 120.09905389 -83.05245194 123.42729943 -87.234375 126.7265625 C-101.54215908 118.00230391 -110.94473395 101.88850973 -115.6796875 86.046875 C-120.97718549 63.88691863 -118.90919439 40.76272399 -106.984375 21.1640625 C-95.13258237 3.43745886 -79.74147937 -8.53193671 -58.69287109 -13.19042969 C-37.8070574 -17.26135354 -17.29963712 -12.15988986 0 0 Z M-75.33203125 30.7265625 C-85.65997029 41.53711551 -88.94205786 54.53903939 -88.625 69.11328125 C-88.22304405 76.14314135 -86.04676607 82.93796957 -81.81640625 88.63671875 C-80.30310786 89.89978265 -80.30310786 89.89978265 -78.40234375 89.7265625 C-75.28173714 88.28714756 -73.00352707 86.07319177 -70.546875 83.7265625 C-70.01868164 83.2325293 -69.49048828 82.73849609 -68.94628906 82.22949219 C-64.97585404 78.49444895 -61.12765391 74.64335882 -57.30078125 70.76171875 C-55.40043303 68.89010926 -53.45122406 67.14338459 -51.421875 65.4140625 C-47.84538685 62.35156067 -44.54047701 59.07375963 -41.234375 55.7265625 C-37.39302216 51.83757975 -33.49161957 48.13560017 -29.32421875 44.59375 C-24.7617738 40.51739732 -20.52352538 36.08667308 -16.234375 31.7265625 C-17.97526183 26.09769509 -21.04886113 24.27981299 -25.9296875 21.30859375 C-43.31477513 12.98594541 -61.78724506 17.81235294 -75.33203125 30.7265625 Z " fill="#FEFEFE" transform="translate(127.234375,24.2734375)"/>
</svg>
